<svg version="1.1" viewBox="0.0 0.0 608.0 419.0" fill="none" stroke="none" stroke-linecap="square" stroke-miterlimit="10" width="608" height="419" xmlns:xlink="http://www.w3.org/1999/xlink" xmlns="http://www.w3.org/2000/svg"><path fill="#1f1f1f" d="M0 0L608.0 0L608.0 419.0L0 419.0L0 0Z" fill-rule="nonzero"/><path stroke="#ebebeb" stroke-width="1.0" stroke-linecap="butt" d="M55.5 371.5L587.5 371.5" fill-rule="nonzero"/><path stroke="#666666" stroke-width="1.0" stroke-linecap="butt" d="M55.5 310.5L587.5 310.5" fill-rule="nonzero"/><path stroke="#666666" stroke-width="1.0" stroke-linecap="butt" d="M55.5 249.5L587.5 249.5" fill-rule="nonzero"/><path stroke="#666666" stroke-width="1.0" stroke-linecap="butt" d="M55.5 189.5L587.5 189.5" fill-rule="nonzero"/><path stroke="#666666" stroke-width="1.0" stroke-linecap="butt" d="M55.5 128.5L587.5 128.5" fill-rule="nonzero"/><path stroke="#666666" stroke-width="1.0" stroke-linecap="butt" d="M55.5 68.5L587.5 68.5" fill-rule="nonzero"/><path stroke="#434343" stroke-width="1.0" stroke-linecap="butt" d="M55.5 340.5L587.5 340.5" fill-rule="nonzero"/><path stroke="#434343" stroke-width="1.0" stroke-linecap="butt" d="M55.5 280.5L587.5 280.5" fill-rule="nonzero"/><path stroke="#434343" stroke-width="1.0" stroke-linecap="butt" d="M55.5 219.5L587.5 219.5" fill-rule="nonzero"/><path stroke="#434343" stroke-width="1.0" stroke-linecap="butt" d="M55.5 159.5L587.5 159.5" fill-rule="nonzero"/><path stroke="#434343" stroke-width="1.0" stroke-linecap="butt" d="M55.5 98.5L587.5 98.5" fill-rule="nonzero"/><clipPath id="id_0"><path d="M55.95 68.416664L587.05 68.416664L587.05 371.05L55.95 371.05L55.95 68.416664Z" clip-rule="nonzero"/></clipPath><path stroke="#000000" stroke-width="2.0" stroke-linecap="butt" stroke-opacity="0.0" clip-path="url(#id_0)" d="M156.0 371.0L91.0 371.0L91.0 252.0C91.0 250.89543 91.89543 250.0 93.0 250.0L154.0 250.0C155.10457 250.0 156.0 250.89543 156.0 252.0Z" fill-rule="nonzero"/><path fill="#e35d5d" clip-path="url(#id_0)" d="M156.0 371.0L91.0 371.0L91.0 252.0C91.0 250.89543 91.89543 250.0 93.0 250.0L154.0 250.0C155.10457 250.0 156.0 250.89543 156.0 252.0Z" fill-rule="nonzero"/><path stroke="#000000" stroke-width="2.0" stroke-linecap="butt" stroke-opacity="0.0" clip-path="url(#id_0)" d="M255.0 371.0L190.0 371.0L190.0 222.0C190.0 220.89543 190.89543 220.0 192.0 220.0L253.0 220.0C254.10457 220.0 255.0 220.89543 255.0 222.0Z" fill-rule="nonzero"/><path fill="#e35d5d" clip-path="url(#id_0)" d="M255.0 371.0L190.0 371.0L190.0 222.0C190.0 220.89543 190.89543 220.0 192.0 220.0L253.0 220.0C254.10457 220.0 255.0 220.89543 255.0 222.0Z" fill-rule="nonzero"/><path stroke="#000000" stroke-width="2.0" stroke-linecap="butt" stroke-opacity="0.0" clip-path="url(#id_0)" d="M355.0 371.0L290.0 371.0L290.0 101.0C290.0 99.89543 290.89542 99.0 292.0 99.0L353.0 99.0C354.10458 99.0 355.0 99.89543 355.0 101.0Z" fill-rule="nonzero"/><path fill="#e35d5d" clip-path="url(#id_0)" d="M355.0 371.0L290.0 371.0L290.0 101.0C290.0 99.89543 290.89542 99.0 292.0 99.0L353.0 99.0C354.10458 99.0 355.0 99.89543 355.0 101.0Z" fill-rule="nonzero"/><path stroke="#000000" stroke-width="2.0" stroke-linecap="butt" stroke-opacity="0.0" clip-path="url(#id_0)" d="M454.0 371.0L389.0 371.0L389.0 222.0C389.0 220.89543 389.89542 220.0 391.0 220.0L452.0 220.0C453.10458 220.0 454.0 220.89543 454.0 222.0Z" fill-rule="nonzero"/><path fill="#e35d5d" clip-path="url(#id_0)" d="M454.0 371.0L389.0 371.0L389.0 222.0C389.0 220.89543 389.89542 220.0 391.0 220.0L452.0 220.0C453.10458 220.0 454.0 220.89543 454.0 222.0Z" fill-rule="nonzero"/><path stroke="#000000" stroke-width="2.0" stroke-linecap="butt" stroke-opacity="0.0" clip-path="url(#id_0)" d="M553.0 371.0L488.0 371.0L488.0 252.0C488.0 250.89543 488.89542 250.0 490.0 250.0L551.0 250.0C552.10455 250.0 553.0 250.89543 553.0 252.0Z" fill-rule="nonzero"/><path fill="#e35d5d" clip-path="url(#id_0)" d="M553.0 371.0L488.0 371.0L488.0 252.0C488.0 250.89543 488.89542 250.0 490.0 250.0L551.0 250.0C552.10455 250.0 553.0 250.89543 553.0 252.0Z" fill-rule="nonzero"/><path fill="#ffffff" d="M39.621876 370.89374Q39.621876 368.8625 40.028126 367.6281Q40.45 366.39374 41.278126 365.72186Q42.10625 365.05 43.35625 365.05Q44.278126 365.05 44.965626 365.425Q45.66875 365.78436 46.121876 366.4875Q46.575 367.1906 46.825 368.1906Q47.090626 369.1906 47.090626 370.89374Q47.090626 372.90936 46.66875 374.15936Q46.2625 375.39374 45.434376 376.08124Q44.60625 376.7531 43.35625 376.7531Q41.7 376.7531 40.746876 375.55Q39.621876 374.1281 39.621876 370.89374ZM41.059376 370.89374Q41.059376 373.72186 41.715626 374.65936Q42.3875 375.58124 43.35625 375.58124Q44.325 375.58124 44.98125 374.64374Q45.6375 373.70624 45.6375 370.89374Q45.6375 368.0656 44.98125 367.14374Q44.325 366.20624 43.340626 366.20624Q42.371876 366.20624 41.79375 367.03436Q41.059376 368.08124 41.059376 370.89374Z" fill-rule="nonzero"/><path fill="#ffffff" d="M47.0125 314.66397L47.0125 316.02335L39.434376 316.02335Q39.41875 315.50772 39.60625 315.03897Q39.8875 314.27335 40.528126 313.52335Q41.16875 312.77335 42.371876 311.78897Q44.23125 310.25772 44.8875 309.3671Q45.54375 308.46085 45.54375 307.66397Q45.54375 306.83585 44.95 306.25772Q44.35625 305.6796 43.3875 305.6796Q42.371876 305.6796 41.7625 306.28897Q41.153126 306.89835 41.153126 307.97647L39.7 307.83585Q39.85625 306.21085 40.825 305.3671Q41.79375 304.52335 43.41875 304.52335Q45.075 304.52335 46.028126 305.44522Q46.996876 306.35147 46.996876 307.69522Q46.996876 308.38272 46.715626 309.0546Q46.434376 309.71085 45.778126 310.44522Q45.121876 311.1796 43.60625 312.46085Q42.340626 313.52335 41.98125 313.91397Q41.621876 314.28897 41.3875 314.66397L47.0125 314.66397Z" fill-rule="nonzero"/><path fill="#ffffff" d="M44.121876 255.49667L44.121876 252.74667L39.153126 252.74667L39.153126 251.46542L44.3875 244.04355L45.528126 244.04355L45.528126 251.46542L47.075 251.46542L47.075 252.74667L45.528126 252.74667L45.528126 255.49667L44.121876 255.49667ZM44.121876 251.46542L44.121876 246.29355L40.54375 251.46542L44.121876 251.46542Z" fill-rule="nonzero"/><path fill="#ffffff" d="M46.91875 186.31375L45.5125 186.42313Q45.325 185.595 44.98125 185.22Q44.41875 184.62625 43.575 184.62625Q42.903126 184.62625 42.403126 185.00125Q41.73125 185.48563 41.340626 186.42313Q40.965626 187.345 40.95 189.06375Q41.465626 188.2825 42.2 187.9075Q42.934376 187.5325 43.73125 187.5325Q45.1375 187.5325 46.121876 188.57938Q47.121876 189.61063 47.121876 191.25125Q47.121876 192.32938 46.653126 193.25125Q46.184376 194.17313 45.371876 194.67313Q44.559376 195.17313 43.528126 195.17313Q41.778126 195.17313 40.66875 193.87625Q39.559376 192.57938 39.559376 189.61063Q39.559376 186.2825 40.778126 184.7825Q41.85625 183.47 43.66875 183.47Q45.0125 183.47 45.871876 184.23563Q46.746876 184.98563 46.91875 186.31375ZM41.16875 191.25125Q41.16875 191.98563 41.48125 192.6575Q41.79375 193.31375 42.340626 193.6575Q42.903126 194.00125 43.5125 194.00125Q44.403126 194.00125 45.04375 193.2825Q45.684376 192.56375 45.684376 191.32938Q45.684376 190.14188 45.04375 189.47Q44.41875 188.7825 43.45 188.7825Q42.496876 188.7825 41.825 189.47Q41.16875 190.14188 41.16875 191.25125Z" fill-rule="nonzero"/><path fill="#ffffff" d="M41.778126 128.22458Q40.903126 127.91208 40.48125 127.31833Q40.059376 126.72458 40.059376 125.896454Q40.059376 124.646454 40.95 123.802704Q41.85625 122.94333 43.35625 122.94333Q44.85625 122.94333 45.7625 123.81833Q46.684376 124.677704 46.684376 125.927704Q46.684376 126.72458 46.2625 127.31833Q45.840626 127.91208 44.996876 128.22458Q46.04375 128.56833 46.590626 129.33395Q47.153126 130.09958 47.153126 131.16208Q47.153126 132.63083 46.10625 133.64645Q45.075 134.64645 43.371876 134.64645Q41.684376 134.64645 40.6375 133.64645Q39.60625 132.63083 39.60625 131.13083Q39.60625 130.00583 40.16875 129.25583Q40.73125 128.50583 41.778126 128.22458ZM41.496876 125.84958Q41.496876 126.66208 42.0125 127.177704Q42.54375 127.69333 43.3875 127.69333Q44.2 127.69333 44.715626 127.177704Q45.23125 126.66208 45.23125 125.927704Q45.23125 125.146454 44.7 124.63083Q44.16875 124.09958 43.371876 124.09958Q42.559376 124.09958 42.028126 124.615204Q41.496876 125.13083 41.496876 125.84958ZM41.04375 131.13083Q41.04375 131.7402 41.325 132.3027Q41.621876 132.8652 42.184376 133.1777Q42.746876 133.47458 43.3875 133.47458Q44.403126 133.47458 45.059376 132.83395Q45.715626 132.1777 45.715626 131.1777Q45.715626 130.16208 45.028126 129.50583Q44.35625 128.83395 43.340626 128.83395Q42.35625 128.83395 41.7 129.4902Q41.04375 130.14645 41.04375 131.13083Z" fill-rule="nonzero"/><path fill="#ffffff" d="M35.91875 73.916664L34.5125 73.916664L34.5125 64.947914Q33.996876 65.43229 33.16875 65.916664Q32.35625 66.40104 31.7 66.65104L31.7 65.291664Q32.871876 64.729164 33.746876 63.947914Q34.6375 63.15104 35.0125 62.416664L35.91875 62.416664L35.91875 73.916664ZM39.621876 68.260414Q39.621876 66.229164 40.028126 64.99479Q40.45 63.760414 41.278126 63.08854Q42.10625 62.416664 43.35625 62.416664Q44.278126 62.416664 44.965626 62.791664Q45.66875 63.15104 46.121876 63.854164Q46.575 64.55729 46.825 65.55729Q47.090626 66.55729 47.090626 68.260414Q47.090626 70.27604 46.66875 71.52604Q46.2625 72.760414 45.434376 73.447914Q44.60625 74.11979 43.35625 74.11979Q41.7 74.11979 40.746876 72.916664Q39.621876 71.49479 39.621876 68.260414ZM41.059376 68.260414Q41.059376 71.08854 41.715626 72.02604Q42.3875 72.947914 43.35625 72.947914Q44.325 72.947914 44.98125 72.010414Q45.6375 71.072914 45.6375 68.260414Q45.6375 65.43229 44.98125 64.510414Q44.325 63.572914 43.340626 63.572914Q42.371876 63.572914 41.79375 64.40104Q41.059376 65.447914 41.059376 68.260414Z" fill-rule="nonzero"/><path fill="#ffffff" d="M124.4267 394.05L123.02045 394.05L123.02045 385.08124Q122.50482 385.5656 121.6767 386.05Q120.8642 386.53436 120.20795 386.78436L120.20795 385.425Q121.37982 384.8625 122.25482 384.08124Q123.14545 383.28436 123.52045 382.55L124.4267 382.55L124.4267 394.05Z" fill-rule="nonzero"/><path fill="#ffffff" d="M225.79147 392.6906L225.79147 394.05L218.21335 394.05Q218.19772 393.53436 218.38522 393.0656Q218.66647 392.3 219.3071 391.55Q219.94772 390.8 221.15085 389.8156Q223.01022 388.28436 223.66647 387.39374Q224.32272 386.4875 224.32272 385.6906Q224.32272 384.8625 223.72897 384.28436Q223.13522 383.70624 222.16647 383.70624Q221.15085 383.70624 220.54147 384.3156Q219.9321 384.925 219.9321 386.0031L218.47897 385.8625Q218.63522 384.2375 219.60397 383.39374Q220.57272 382.55 222.19772 382.55Q223.85397 382.55 224.8071 383.47186Q225.77585 384.3781 225.77585 385.72186Q225.77585 386.40936 225.4946 387.08124Q225.21335 387.7375 224.5571 388.47186Q223.90085 389.20624 222.38522 390.4875Q221.1196 391.55 220.76022 391.9406Q220.40085 392.3156 220.16647 392.6906L225.79147 392.6906Z" fill-rule="nonzero"/><path fill="#ffffff" d="M317.67188 391.01874L319.07812 390.83124Q319.32812 392.03436 319.90625 392.5656Q320.48438 393.08124 321.32812 393.08124Q322.3125 393.08124 323.0 392.39374Q323.6875 391.70624 323.6875 390.6906Q323.6875 389.72186 323.04688 389.09686Q322.42188 388.47186 321.4375 388.47186Q321.04688 388.47186 320.45312 388.6281L320.60938 387.39374Q320.75 387.40936 320.82812 387.40936Q321.73438 387.40936 322.45312 386.9406Q323.17188 386.47186 323.17188 385.4875Q323.17188 384.72186 322.64062 384.22186Q322.125 383.70624 321.29688 383.70624Q320.46875 383.70624 319.92188 384.22186Q319.375 384.7375 319.21875 385.76874L317.8125 385.51874Q318.07812 384.09686 318.98438 383.33124Q319.90625 382.55 321.26562 382.55Q322.20312 382.55 322.98438 382.95624Q323.78125 383.34686 324.1875 384.05Q324.60938 384.7375 324.60938 385.51874Q324.60938 386.26874 324.20312 386.8781Q323.8125 387.4875 323.03125 387.84686Q324.04688 388.08124 324.60938 388.8156Q325.17188 389.55 325.17188 390.65936Q325.17188 392.15936 324.07812 393.20624Q322.98438 394.2531 321.3125 394.2531Q319.8125 394.2531 318.8125 393.3625Q317.8125 392.45624 317.67188 391.01874Z" fill-rule="nonzero"/><path fill="#ffffff" d="M421.4429 394.05L421.4429 391.3L416.47415 391.3L416.47415 390.01874L421.70853 382.59686L422.84915 382.59686L422.84915 390.01874L424.39603 390.01874L424.39603 391.3L422.84915 391.3L422.84915 394.05L421.4429 394.05ZM421.4429 390.01874L421.4429 384.84686L417.86478 390.01874L421.4429 390.01874Z" fill-rule="nonzero"/><path fill="#ffffff" d="M516.2139 391.05L517.6827 390.925Q517.85455 392.0031 518.4483 392.55Q519.04205 393.08124 519.8858 393.08124Q520.9014 393.08124 521.60455 392.3156Q522.3077 391.55 522.3077 390.28436Q522.3077 389.08124 521.6358 388.39374Q520.9639 387.6906 519.8702 387.6906Q519.1827 387.6906 518.6358 388.0031Q518.0889 388.3156 517.7764 388.8L516.4639 388.6281L517.5733 382.7531L523.2608 382.7531L523.2608 384.09686L518.6983 384.09686L518.0733 387.175Q519.10455 386.45624 520.2452 386.45624Q521.7452 386.45624 522.7764 387.5031Q523.8077 388.53436 523.8077 390.15936Q523.8077 391.72186 522.9014 392.84686Q521.79205 394.2531 519.8858 394.2531Q518.3233 394.2531 517.3389 393.3781Q516.35455 392.4875 516.2139 391.05Z" fill-rule="nonzero"/><path fill="#ffffff" d="M83.140625 39.95L83.140625 25.6375L92.796875 25.6375L92.796875 27.325L85.03125 27.325L85.03125 31.7625L91.75 31.7625L91.75 33.45L85.03125 33.45L85.03125 39.95L83.140625 39.95ZM94.796875 39.95L94.796875 29.575L96.375 29.575L96.375 31.153126Q96.984375 30.04375 97.5 29.7Q98.015625 29.340626 98.625 29.340626Q99.515625 29.340626 100.4375 29.903126L99.828125 31.54375Q99.1875 31.153126 98.546875 31.153126Q97.96875 31.153126 97.5 31.5125Q97.046875 31.85625 96.84375 32.465626Q96.5625 33.403126 96.5625 34.5125L96.5625 39.95L94.796875 39.95ZM108.921875 36.60625L110.734375 36.840626Q110.3125 38.41875 109.140625 39.309376Q107.984375 40.184376 106.171875 40.184376Q103.90625 40.184376 102.5625 38.79375Q101.234375 37.3875 101.234375 34.85625Q101.234375 32.23125 102.578125 30.79375Q103.921875 29.340626 106.078125 29.340626Q108.15625 29.340626 109.46875 30.7625Q110.796875 32.16875 110.796875 34.746876Q110.796875 34.903126 110.78125 35.215626L103.046875 35.215626Q103.140625 36.91875 104.015625 37.825Q104.890625 38.73125 106.1875 38.73125Q107.15625 38.73125 107.828125 38.23125Q108.515625 37.715626 108.921875 36.60625ZM103.140625 33.7625L108.9375 33.7625Q108.828125 32.465626 108.28125 31.809376Q107.4375 30.79375 106.09375 30.79375Q104.890625 30.79375 104.0625 31.60625Q103.234375 32.403126 103.140625 33.7625ZM119.4375 43.91875L119.4375 38.840626Q119.015625 39.41875 118.28125 39.809376Q117.546875 40.184376 116.71875 40.184376Q114.875 40.184376 113.53125 38.715626Q112.203125 37.23125 112.203125 34.66875Q112.203125 33.10625 112.734375 31.871876Q113.28125 30.621876 114.3125 29.98125Q115.34375 29.340626 116.578125 29.340626Q118.5 29.340626 119.609375 30.965626L119.609375 29.575L121.1875 29.575L121.1875 43.91875L119.4375 43.91875ZM114.015625 34.73125Q114.015625 36.73125 114.84375 37.73125Q115.6875 38.73125 116.859375 38.73125Q117.984375 38.73125 118.796875 37.79375Q119.609375 36.840626 119.609375 34.8875Q119.609375 32.825 118.75 31.778126Q117.890625 30.73125 116.75 30.73125Q115.609375 30.73125 114.8125 31.7Q114.015625 32.66875 114.015625 34.73125ZM130.60938 39.95L130.60938 38.41875Q129.40625 40.184376 127.328125 40.184376Q126.40625 40.184376 125.609375 39.840626Q124.8125 39.48125 124.421875 38.95Q124.046875 38.41875 123.890625 37.6375Q123.78125 37.121876 123.78125 35.996876L123.78125 29.575L125.53125 29.575L125.53125 35.325Q125.53125 36.7 125.640625 37.184376Q125.8125 37.871876 126.34375 38.278126Q126.890625 38.66875 127.671875 38.66875Q128.46875 38.66875 129.15625 38.2625Q129.85938 37.85625 130.14062 37.16875Q130.4375 36.465626 130.4375 35.1375L130.4375 29.575L132.1875 29.575L132.1875 39.95L130.60938 39.95ZM140.92188 36.60625L142.73438 36.840626Q142.3125 38.41875 141.14062 39.309376Q139.98438 40.184376 138.17188 40.184376Q135.90625 40.184376 134.5625 38.79375Q133.23438 37.3875 133.23438 34.85625Q133.23438 32.23125 134.57812 30.79375Q135.92188 29.340626 138.07812 29.340626Q140.15625 29.340626 141.46875 30.7625Q142.79688 32.16875 142.79688 34.746876Q142.79688 34.903126 142.78125 35.215626L135.04688 35.215626Q135.14062 36.91875 136.01562 37.825Q136.89062 38.73125 138.1875 38.73125Q139.15625 38.73125 139.82812 38.23125Q140.51562 37.715626 140.92188 36.60625ZM135.14062 33.7625L140.9375 33.7625Q140.82812 32.465626 140.28125 31.809376Q139.4375 30.79375 138.09375 30.79375Q136.89062 30.79375 136.0625 31.60625Q135.23438 32.403126 135.14062 33.7625ZM144.8125 39.95L144.8125 29.575L146.40625 29.575L146.40625 31.059376Q147.54688 29.340626 149.70312 29.340626Q150.64062 29.340626 151.42188 29.684376Q152.21875 30.0125 152.60938 30.559376Q153.0 31.10625 153.15625 31.85625Q153.25 32.35625 153.25 33.575L153.25 39.95L151.48438 39.95L151.48438 33.6375Q151.48438 32.559376 151.28125 32.028126Q151.07812 31.496876 150.54688 31.184376Q150.03125 30.871876 149.32812 30.871876Q148.20312 30.871876 147.39062 31.590626Q146.57812 32.29375 146.57812 34.278126L146.57812 39.95L144.8125 39.95ZM161.59375 36.153126L163.3125 36.371876Q163.03125 38.16875 161.85938 39.184376Q160.70312 40.184376 159.0 40.184376Q156.875 40.184376 155.57812 38.79375Q154.28125 37.403126 154.28125 34.809376Q154.28125 33.121876 154.82812 31.871876Q155.39062 30.60625 156.53125 29.98125Q157.67188 29.340626 159.01562 29.340626Q160.70312 29.340626 161.76562 30.2Q162.84375 31.059376 163.15625 32.621876L161.4375 32.8875Q161.20312 31.840626 160.57812 31.325Q159.95312 30.79375 159.07812 30.79375Q157.75 30.79375 156.92188 31.746876Q156.09375 32.7 156.09375 34.746876Q156.09375 36.840626 156.89062 37.79375Q157.6875 38.73125 158.98438 38.73125Q160.01562 38.73125 160.70312 38.10625Q161.40625 37.465626 161.59375 36.153126ZM164.73438 43.95L164.54688 42.29375Q165.125 42.45 165.54688 42.45Q166.14062 42.45 166.48438 42.246876Q166.84375 42.059376 167.0625 41.715626Q167.23438 41.45 167.60938 40.403126Q167.65625 40.246876 167.76562 39.965626L163.82812 29.575L165.71875 29.575L167.875 35.590626Q168.29688 36.73125 168.625 37.98125Q168.9375 36.778126 169.34375 35.621876L171.5625 29.575L173.32812 29.575L169.375 40.121876Q168.75 41.840626 168.39062 42.48125Q167.92188 43.35625 167.3125 43.746876Q166.71875 44.153126 165.875 44.153126Q165.35938 44.153126 164.73438 43.95ZM180.17188 34.7625Q180.17188 31.8875 181.76562 30.496876Q183.10938 29.340626 185.03125 29.340626Q187.17188 29.340626 188.51562 30.746876Q189.875 32.153126 189.875 34.621876Q189.875 36.621876 189.28125 37.778126Q188.6875 38.91875 187.53125 39.559376Q186.39062 40.184376 185.03125 40.184376Q182.84375 40.184376 181.5 38.79375Q180.17188 37.3875 180.17188 34.7625ZM181.96875 34.7625Q181.96875 36.7625 182.82812 37.746876Q183.70312 38.73125 185.03125 38.73125Q186.34375 38.73125 187.20312 37.746876Q188.07812 36.746876 188.07812 34.7Q188.07812 32.778126 187.20312 31.79375Q186.32812 30.79375 185.03125 30.79375Q183.70312 30.79375 182.82812 31.79375Q181.96875 32.778126 181.96875 34.7625ZM192.23438 39.95L192.23438 30.95L190.6875 30.95L190.6875 29.575L192.23438 29.575L192.23438 28.48125Q192.23438 27.434376 192.42188 26.91875Q192.67188 26.23125 193.3125 25.809376Q193.95312 25.3875 195.10938 25.3875Q195.85938 25.3875 196.75 25.559376L196.48438 27.090626Q195.9375 26.996876 195.45312 26.996876Q194.65625 26.996876 194.3125 27.340626Q193.98438 27.684376 193.98438 28.621876L193.98438 29.575L196.01562 29.575L196.01562 30.95L193.98438 30.95L193.98438 39.95L192.23438 39.95ZM210.92188 36.60625L212.73438 36.840626Q212.3125 38.41875 211.14062 39.309376Q209.98438 40.184376 208.17188 40.184376Q205.90625 40.184376 204.5625 38.79375Q203.23438 37.3875 203.23438 34.85625Q203.23438 32.23125 204.57812 30.79375Q205.92188 29.340626 208.07812 29.340626Q210.15625 29.340626 211.46875 30.7625Q212.79688 32.16875 212.79688 34.746876Q212.79688 34.903126 212.78125 35.215626L205.04688 35.215626Q205.14062 36.91875 206.01562 37.825Q206.89062 38.73125 208.1875 38.73125Q209.15625 38.73125 209.82812 38.23125Q210.51562 37.715626 210.92188 36.60625ZM205.14062 33.7625L210.9375 33.7625Q210.82812 32.465626 210.28125 31.809376Q209.4375 30.79375 208.09375 30.79375Q206.89062 30.79375 206.0625 31.60625Q205.23438 32.403126 205.14062 33.7625ZM221.59375 38.66875Q220.60938 39.496876 219.70312 39.840626Q218.79688 40.184376 217.76562 40.184376Q216.0625 40.184376 215.14062 39.35625Q214.21875 38.5125 214.21875 37.215626Q214.21875 36.45 214.5625 35.825Q214.92188 35.2 215.48438 34.825Q216.04688 34.434376 216.75 34.23125Q217.26562 34.10625 218.3125 33.965626Q220.4375 33.715626 221.4375 33.371876Q221.45312 33.0125 221.45312 32.903126Q221.45312 31.840626 220.95312 31.3875Q220.28125 30.79375 218.95312 30.79375Q217.70312 30.79375 217.10938 31.23125Q216.53125 31.66875 216.25 32.778126L214.53125 32.54375Q214.76562 31.434376 215.29688 30.7625Q215.82812 30.075 216.84375 29.715626Q217.85938 29.340626 219.20312 29.340626Q220.53125 29.340626 221.35938 29.653126Q222.1875 29.965626 222.57812 30.45Q222.96875 30.91875 223.125 31.6375Q223.21875 32.090626 223.21875 33.2625L223.21875 35.60625Q223.21875 38.059376 223.32812 38.715626Q223.4375 39.35625 223.78125 39.95L221.9375 39.95Q221.67188 39.403126 221.59375 38.66875ZM221.4375 34.746876Q220.48438 35.1375 218.5625 35.403126Q217.48438 35.559376 217.03125 35.7625Q216.59375 35.95 216.34375 36.325Q216.09375 36.7 216.09375 37.16875Q216.09375 37.871876 216.625 38.340626Q217.15625 38.809376 218.1875 38.809376Q219.20312 38.809376 219.98438 38.371876Q220.78125 37.91875 221.15625 37.153126Q221.4375 36.54375 221.4375 35.3875L221.4375 34.746876ZM232.59375 36.153126L234.3125 36.371876Q234.03125 38.16875 232.85938 39.184376Q231.70312 40.184376 230.0 40.184376Q227.875 40.184376 226.57812 38.79375Q225.28125 37.403126 225.28125 34.809376Q225.28125 33.121876 225.82812 31.871876Q226.39062 30.60625 227.53125 29.98125Q228.67188 29.340626 230.01562 29.340626Q231.70312 29.340626 232.76562 30.2Q233.84375 31.059376 234.15625 32.621876L232.4375 32.8875Q232.20312 31.840626 231.57812 31.325Q230.95312 30.79375 230.07812 30.79375Q228.75 30.79375 227.92188 31.746876Q227.09375 32.7 227.09375 34.746876Q227.09375 36.840626 227.89062 37.79375Q228.6875 38.73125 229.98438 38.73125Q231.01562 38.73125 231.70312 38.10625Q232.40625 37.465626 232.59375 36.153126ZM235.8125 39.95L235.8125 25.6375L237.57812 25.6375L237.57812 30.7625Q238.8125 29.340626 240.6875 29.340626Q241.82812 29.340626 242.67188 29.79375Q243.53125 30.246876 243.89062 31.059376Q244.26562 31.85625 244.26562 33.371876L244.26562 39.95L242.51562 39.95L242.51562 33.371876Q242.51562 32.059376 241.9375 31.465626Q241.35938 30.85625 240.32812 30.85625Q239.54688 30.85625 238.84375 31.2625Q238.15625 31.66875 237.85938 32.371876Q237.57812 33.059376 237.57812 34.278126L237.57812 39.95L235.8125 39.95ZM251.79688 39.95L251.79688 29.575L253.375 29.575L253.375 31.153126Q253.98438 30.04375 254.5 29.7Q255.01562 29.340626 255.625 29.340626Q256.51562 29.340626 257.4375 29.903126L256.82812 31.54375Q256.1875 31.153126 255.54688 31.153126Q254.96875 31.153126 254.5 31.5125Q254.04688 31.85625 253.84375 32.465626Q253.5625 33.403126 253.5625 34.5125L253.5625 39.95L251.79688 39.95ZM265.59375 38.66875Q264.60938 39.496876 263.70312 39.840626Q262.79688 40.184376 261.76562 40.184376Q260.0625 40.184376 259.14062 39.35625Q258.21875 38.5125 258.21875 37.215626Q258.21875 36.45 258.5625 35.825Q258.92188 35.2 259.48438 34.825Q260.04688 34.434376 260.75 34.23125Q261.26562 34.10625 262.3125 33.965626Q264.4375 33.715626 265.4375 33.371876Q265.45312 33.0125 265.45312 32.903126Q265.45312 31.840626 264.95312 31.3875Q264.28125 30.79375 262.95312 30.79375Q261.70312 30.79375 261.10938 31.23125Q260.53125 31.66875 260.25 32.778126L258.53125 32.54375Q258.76562 31.434376 259.29688 30.7625Q259.82812 30.075 260.84375 29.715626Q261.85938 29.340626 263.20312 29.340626Q264.53125 29.340626 265.35938 29.653126Q266.1875 29.965626 266.57812 30.45Q266.96875 30.91875 267.125 31.6375Q267.21875 32.090626 267.21875 33.2625L267.21875 35.60625Q267.21875 38.059376 267.32812 38.715626Q267.4375 39.35625 267.78125 39.95L265.9375 39.95Q265.67188 39.403126 265.59375 38.66875ZM265.4375 34.746876Q264.48438 35.1375 262.5625 35.403126Q261.48438 35.559376 261.03125 35.7625Q260.59375 35.95 260.34375 36.325Q260.09375 36.7 260.09375 37.16875Q260.09375 37.871876 260.625 38.340626Q261.15625 38.809376 262.1875 38.809376Q263.20312 38.809376 263.98438 38.371876Q264.78125 37.91875 265.15625 37.153126Q265.4375 36.54375 265.4375 35.3875L265.4375 34.746876ZM273.65625 38.371876L273.90625 39.934376Q273.17188 40.090626 272.57812 40.090626Q271.625 40.090626 271.09375 39.79375Q270.57812 39.48125 270.35938 38.996876Q270.14062 38.496876 270.14062 36.91875L270.14062 30.95L268.85938 30.95L268.85938 29.575L270.14062 29.575L270.14062 27.0125L271.89062 25.95L271.89062 29.575L273.65625 29.575L273.65625 30.95L271.89062 30.95L271.89062 37.0125Q271.89062 37.7625 271.98438 37.98125Q272.07812 38.184376 272.28125 38.325Q272.5 38.45 272.89062 38.45Q273.17188 38.45 273.65625 38.371876ZM275.82812 27.653126L275.82812 25.6375L277.59375 25.6375L277.59375 27.653126L275.82812 27.653126ZM275.82812 39.95L275.82812 29.575L277.59375 29.575L277.59375 39.95L275.82812 39.95ZM279.8125 39.95L279.8125 29.575L281.40625 29.575L281.40625 31.059376Q282.54688 29.340626 284.70312 29.340626Q285.64062 29.340626 286.42188 29.684376Q287.21875 30.0125 287.60938 30.559376Q288.0 31.10625 288.15625 31.85625Q288.25 32.35625 288.25 33.575L288.25 39.95L286.48438 39.95L286.48438 33.6375Q286.48438 32.559376 286.28125 32.028126Q286.07812 31.496876 285.54688 31.184376Q285.03125 30.871876 284.32812 30.871876Q283.20312 30.871876 282.39062 31.590626Q281.57812 32.29375 281.57812 34.278126L281.57812 39.95L279.8125 39.95ZM289.5 40.809376L291.20312 41.059376Q291.3125 41.85625 291.79688 42.215626Q292.45312 42.7 293.59375 42.7Q294.8125 42.7 295.46875 42.215626Q296.14062 41.73125 296.375 40.85625Q296.51562 40.309376 296.5 38.590626Q295.34375 39.95 293.625 39.95Q291.48438 39.95 290.3125 38.403126Q289.14062 36.85625 289.14062 34.7Q289.14062 33.215626 289.67188 31.965626Q290.21875 30.715626 291.23438 30.028126Q292.26562 29.340626 293.64062 29.340626Q295.46875 29.340626 296.67188 30.825L296.67188 29.575L298.28125 29.575L298.28125 38.54375Q298.28125 40.965626 297.78125 41.965626Q297.29688 42.98125 296.21875 43.559376Q295.15625 44.153126 293.59375 44.153126Q291.75 44.153126 290.59375 43.325Q289.45312 42.496876 289.5 40.809376ZM290.95312 34.575Q290.95312 36.621876 291.76562 37.559376Q292.57812 38.496876 293.79688 38.496876Q295.0 38.496876 295.8125 37.559376Q296.64062 36.621876 296.64062 34.6375Q296.64062 32.73125 295.79688 31.7625Q294.95312 30.79375 293.76562 30.79375Q292.59375 30.79375 291.76562 31.746876Q290.95312 32.7 290.95312 34.575ZM310.17188 44.153126Q308.71875 42.325 307.71875 39.871876Q306.71875 37.403126 306.71875 34.7625Q306.71875 32.434376 307.46875 30.309376Q308.34375 27.840626 310.17188 25.3875L311.4375 25.3875Q310.25 27.41875 309.875 28.29375Q309.28125 29.6375 308.9375 31.10625Q308.51562 32.934376 308.51562 34.778126Q308.51562 39.465626 311.4375 44.153126L310.17188 44.153126ZM313.32812 32.8875Q313.32812 30.35625 313.84375 28.809376Q314.375 27.246876 315.40625 26.41875Q316.4375 25.575 318.0 25.575Q319.15625 25.575 320.01562 26.04375Q320.89062 26.496876 321.45312 27.371876Q322.01562 28.246876 322.34375 29.5125Q322.67188 30.7625 322.67188 32.8875Q322.67188 35.403126 322.14062 36.95Q321.625 38.496876 320.59375 39.35625Q319.57812 40.2 318.0 40.2Q315.92188 40.2 314.75 38.715626Q313.32812 36.91875 313.32812 32.8875ZM315.14062 32.8875Q315.14062 36.41875 315.95312 37.590626Q316.78125 38.746876 318.0 38.746876Q319.20312 38.746876 320.03125 37.575Q320.85938 36.403126 320.85938 32.8875Q320.85938 29.35625 320.03125 28.2Q319.20312 27.028126 317.98438 27.028126Q316.76562 27.028126 316.04688 28.059376Q315.14062 29.35625 315.14062 32.8875ZM324.32812 36.2L326.17188 36.04375Q326.375 37.3875 327.125 38.075Q327.875 38.746876 328.9375 38.746876Q330.20312 38.746876 331.07812 37.79375Q331.95312 36.840626 331.95312 35.246876Q331.95312 33.746876 331.10938 32.8875Q330.26562 32.0125 328.90625 32.0125Q328.04688 32.0125 327.35938 32.403126Q326.6875 32.778126 326.29688 33.403126L324.64062 33.184376L326.03125 25.825L333.15625 25.825L333.15625 27.5125L327.4375 27.5125L326.67188 31.35625Q327.95312 30.45 329.375 30.45Q331.25 30.45 332.53125 31.7625Q333.82812 33.059376 333.82812 35.090626Q333.82812 37.04375 332.6875 38.45Q331.3125 40.2 328.9375 40.2Q326.98438 40.2 325.73438 39.10625Q324.5 38.0125 324.32812 36.2ZM336.3125 39.95L336.3125 37.95L338.3125 37.95L338.3125 39.95L336.3125 39.95ZM341.32812 32.8875Q341.32812 30.35625 341.84375 28.809376Q342.375 27.246876 343.40625 26.41875Q344.4375 25.575 346.0 25.575Q347.15625 25.575 348.01562 26.04375Q348.89062 26.496876 349.45312 27.371876Q350.01562 28.246876 350.34375 29.5125Q350.67188 30.7625 350.67188 32.8875Q350.67188 35.403126 350.14062 36.95Q349.625 38.496876 348.59375 39.35625Q347.57812 40.2 346.0 40.2Q343.92188 40.2 342.75 38.715626Q341.32812 36.91875 341.32812 32.8875ZM343.14062 32.8875Q343.14062 36.41875 343.95312 37.590626Q344.78125 38.746876 346.0 38.746876Q347.20312 38.746876 348.03125 37.575Q348.85938 36.403126 348.85938 32.8875Q348.85938 29.35625 348.03125 28.2Q347.20312 27.028126 345.98438 27.028126Q344.76562 27.028126 344.04688 28.059376Q343.14062 29.35625 343.14062 32.8875ZM352.45312 27.5125L352.45312 25.825L361.71875 25.825L361.71875 27.184376Q360.34375 28.6375 359.0 31.059376Q357.65625 33.465626 356.9375 36.0125Q356.40625 37.809376 356.25 39.95L354.45312 39.95Q354.48438 38.2625 355.10938 35.871876Q355.75 33.48125 356.9375 31.2625Q358.125 29.028126 359.45312 27.5125L352.45312 27.5125ZM364.3125 39.95L364.3125 37.95L366.3125 37.95L366.3125 39.95L364.3125 39.95ZM378.5625 38.2625L378.5625 39.95L369.10938 39.95Q369.09375 39.309376 369.3125 38.73125Q369.67188 37.7625 370.46875 36.825Q371.26562 35.8875 372.76562 34.653126Q375.10938 32.746876 375.92188 31.6375Q376.75 30.5125 376.75 29.5125Q376.75 28.465626 376.0 27.746876Q375.25 27.028126 374.04688 27.028126Q372.78125 27.028126 372.01562 27.79375Q371.25 28.559376 371.25 29.903126L369.4375 29.715626Q369.625 27.7 370.82812 26.6375Q372.04688 25.575 374.09375 25.575Q376.14062 25.575 377.34375 26.715626Q378.54688 27.85625 378.54688 29.54375Q378.54688 30.403126 378.1875 31.246876Q377.84375 32.075 377.03125 32.996876Q376.21875 33.903126 374.32812 35.5125Q372.73438 36.840626 372.28125 37.309376Q371.84375 37.778126 371.54688 38.2625L378.5625 38.2625ZM380.32812 32.8875Q380.32812 30.35625 380.84375 28.809376Q381.375 27.246876 382.40625 26.41875Q383.4375 25.575 385.0 25.575Q386.15625 25.575 387.01562 26.04375Q387.89062 26.496876 388.45312 27.371876Q389.01562 28.246876 389.34375 29.5125Q389.67188 30.7625 389.67188 32.8875Q389.67188 35.403126 389.14062 36.95Q388.625 38.496876 387.59375 39.35625Q386.57812 40.2 385.0 40.2Q382.92188 40.2 381.75 38.715626Q380.32812 36.91875 380.32812 32.8875ZM382.14062 32.8875Q382.14062 36.41875 382.95312 37.590626Q383.78125 38.746876 385.0 38.746876Q386.20312 38.746876 387.03125 37.575Q387.85938 36.403126 387.85938 32.8875Q387.85938 29.35625 387.03125 28.2Q386.20312 27.028126 384.98438 27.028126Q383.76562 27.028126 383.04688 28.059376Q382.14062 29.35625 382.14062 32.8875ZM400.5625 38.2625L400.5625 39.95L391.10938 39.95Q391.09375 39.309376 391.3125 38.73125Q391.67188 37.7625 392.46875 36.825Q393.26562 35.8875 394.76562 34.653126Q397.10938 32.746876 397.92188 31.6375Q398.75 30.5125 398.75 29.5125Q398.75 28.465626 398.0 27.746876Q397.25 27.028126 396.04688 27.028126Q394.78125 27.028126 394.01562 27.79375Q393.25 28.559376 393.25 29.903126L391.4375 29.715626Q391.625 27.7 392.82812 26.6375Q394.04688 25.575 396.09375 25.575Q398.14062 25.575 399.34375 26.715626Q400.54688 27.85625 400.54688 29.54375Q400.54688 30.403126 400.1875 31.246876Q399.84375 32.075 399.03125 32.996876Q398.21875 33.903126 396.32812 35.5125Q394.73438 36.840626 394.28125 37.309376Q393.84375 37.778126 393.54688 38.2625L400.5625 38.2625ZM402.32812 36.2L404.17188 36.04375Q404.375 37.3875 405.125 38.075Q405.875 38.746876 406.9375 38.746876Q408.20312 38.746876 409.07812 37.79375Q409.95312 36.840626 409.95312 35.246876Q409.95312 33.746876 409.10938 32.8875Q408.26562 32.0125 406.90625 32.0125Q406.04688 32.0125 405.35938 32.403126Q404.6875 32.778126 404.29688 33.403126L402.64062 33.184376L404.03125 25.825L411.15625 25.825L411.15625 27.5125L405.4375 27.5125L404.67188 31.35625Q405.95312 30.45 407.375 30.45Q409.25 30.45 410.53125 31.7625Q411.82812 33.059376 411.82812 35.090626Q411.82812 37.04375 410.6875 38.45Q409.3125 40.2 406.9375 40.2Q404.98438 40.2 403.73438 39.10625Q402.5 38.0125 402.32812 36.2ZM413.14062 35.653126L413.14062 33.8875L418.53125 33.8875L418.53125 35.653126L413.14062 35.653126ZM420.34375 36.16875L422.09375 35.934376Q422.40625 37.434376 423.125 38.090626Q423.85938 38.746876 424.90625 38.746876Q426.14062 38.746876 426.98438 37.8875Q427.84375 37.028126 427.84375 35.7625Q427.84375 34.54375 427.04688 33.7625Q426.26562 32.98125 425.04688 32.98125Q424.54688 32.98125 423.8125 33.16875L424.0 31.621876Q424.17188 31.653126 424.28125 31.653126Q425.40625 31.653126 426.29688 31.075Q427.20312 30.48125 427.20312 29.2625Q427.20312 28.29375 426.54688 27.653126Q425.89062 27.0125 424.85938 27.0125Q423.84375 27.0125 423.15625 27.66875Q422.46875 28.309376 422.28125 29.590626L420.51562 29.278126Q420.84375 27.5125 421.98438 26.54375Q423.125 25.575 424.82812 25.575Q426.0 25.575 426.98438 26.075Q427.96875 26.575 428.48438 27.45Q429.01562 28.325 429.01562 29.29375Q429.01562 30.215626 428.51562 30.98125Q428.01562 31.746876 427.04688 32.2Q428.3125 32.48125 429.01562 33.41875Q429.71875 34.340626 429.71875 35.715626Q429.71875 37.590626 428.34375 38.903126Q426.98438 40.2 424.89062 40.2Q423.0 40.2 421.75 39.075Q420.51562 37.95 420.34375 36.16875ZM437.95312 39.95L436.1875 39.95L436.1875 28.746876Q435.5625 29.35625 434.53125 29.965626Q433.5 30.559376 432.67188 30.871876L432.67188 29.16875Q434.15625 28.48125 435.25 27.496876Q436.35938 26.496876 436.8125 25.575L437.95312 25.575L437.95312 39.95ZM443.3125 39.95L443.3125 37.95L445.3125 37.95L445.3125 39.95L443.3125 39.95ZM448.32812 32.8875Q448.32812 30.35625 448.84375 28.809376Q449.375 27.246876 450.40625 26.41875Q451.4375 25.575 453.0 25.575Q454.15625 25.575 455.01562 26.04375Q455.89062 26.496876 456.45312 27.371876Q457.01562 28.246876 457.34375 29.5125Q457.67188 30.7625 457.67188 32.8875Q457.67188 35.403126 457.14062 36.95Q456.625 38.496876 455.59375 39.35625Q454.57812 40.2 453.0 40.2Q450.92188 40.2 449.75 38.715626Q448.32812 36.91875 448.32812 32.8875ZM450.14062 32.8875Q450.14062 36.41875 450.95312 37.590626Q451.78125 38.746876 453.0 38.746876Q454.20312 38.746876 455.03125 37.575Q455.85938 36.403126 455.85938 32.8875Q455.85938 29.35625 455.03125 28.2Q454.20312 27.028126 452.98438 27.028126Q451.76562 27.028126 451.04688 28.059376Q450.14062 29.35625 450.14062 32.8875ZM459.45312 27.5125L459.45312 25.825L468.71875 25.825L468.71875 27.184376Q467.34375 28.6375 466.0 31.059376Q464.65625 33.465626 463.9375 36.0125Q463.40625 37.809376 463.25 39.95L461.45312 39.95Q461.48438 38.2625 462.10938 35.871876Q462.75 33.48125 463.9375 31.2625Q465.125 29.028126 466.45312 27.5125L459.45312 27.5125ZM471.3125 39.95L471.3125 37.95L473.3125 37.95L473.3125 39.95L471.3125 39.95ZM485.5625 38.2625L485.5625 39.95L476.10938 39.95Q476.09375 39.309376 476.3125 38.73125Q476.67188 37.7625 477.46875 36.825Q478.26562 35.8875 479.76562 34.653126Q482.10938 32.746876 482.92188 31.6375Q483.75 30.5125 483.75 29.5125Q483.75 28.465626 483.0 27.746876Q482.25 27.028126 481.04688 27.028126Q479.78125 27.028126 479.01562 27.79375Q478.25 28.559376 478.25 29.903126L476.4375 29.715626Q476.625 27.7 477.82812 26.6375Q479.04688 25.575 481.09375 25.575Q483.14062 25.575 484.34375 26.715626Q485.54688 27.85625 485.54688 29.54375Q485.54688 30.403126 485.1875 31.246876Q484.84375 32.075 484.03125 32.996876Q483.21875 33.903126 481.32812 35.5125Q479.73438 36.840626 479.28125 37.309376Q478.84375 37.778126 478.54688 38.2625L485.5625 38.2625ZM487.32812 32.8875Q487.32812 30.35625 487.84375 28.809376Q488.375 27.246876 489.40625 26.41875Q490.4375 25.575 492.0 25.575Q493.15625 25.575 494.01562 26.04375Q494.89062 26.496876 495.45312 27.371876Q496.01562 28.246876 496.34375 29.5125Q496.67188 30.7625 496.67188 32.8875Q496.67188 35.403126 496.14062 36.95Q495.625 38.496876 494.59375 39.35625Q493.57812 40.2 492.0 40.2Q489.92188 40.2 488.75 38.715626Q487.32812 36.91875 487.32812 32.8875ZM489.14062 32.8875Q489.14062 36.41875 489.95312 37.590626Q490.78125 38.746876 492.0 38.746876Q493.20312 38.746876 494.03125 37.575Q494.85938 36.403126 494.85938 32.8875Q494.85938 29.35625 494.03125 28.2Q493.20312 27.028126 491.98438 27.028126Q490.76562 27.028126 490.04688 28.059376Q489.14062 29.35625 489.14062 32.8875ZM507.5625 38.2625L507.5625 39.95L498.10938 39.95Q498.09375 39.309376 498.3125 38.73125Q498.67188 37.7625 499.46875 36.825Q500.26562 35.8875 501.76562 34.653126Q504.10938 32.746876 504.92188 31.6375Q505.75 30.5125 505.75 29.5125Q505.75 28.465626 505.0 27.746876Q504.25 27.028126 503.04688 27.028126Q501.78125 27.028126 501.01562 27.79375Q500.25 28.559376 500.25 29.903126L498.4375 29.715626Q498.625 27.7 499.82812 26.6375Q501.04688 25.575 503.09375 25.575Q505.14062 25.575 506.34375 26.715626Q507.54688 27.85625 507.54688 29.54375Q507.54688 30.403126 507.1875 31.246876Q506.84375 32.075 506.03125 32.996876Q505.21875 33.903126 503.32812 35.5125Q501.73438 36.840626 501.28125 37.309376Q500.84375 37.778126 500.54688 38.2625L507.5625 38.2625ZM509.32812 36.2L511.17188 36.04375Q511.375 37.3875 512.125 38.075Q512.875 38.746876 513.9375 38.746876Q515.2031 38.746876 516.0781 37.79375Q516.9531 36.840626 516.9531 35.246876Q516.9531 33.746876 516.1094 32.8875Q515.2656 32.0125 513.90625 32.0125Q513.0469 32.0125 512.3594 32.403126Q511.6875 32.778126 511.29688 33.403126L509.64062 33.184376L511.03125 25.825L518.15625 25.825L518.15625 27.5125L512.4375 27.5125L511.67188 31.35625Q512.9531 30.45 514.375 30.45Q516.25 30.45 517.53125 31.7625Q518.8281 33.059376 518.8281 35.090626Q518.8281 37.04375 517.6875 38.45Q516.3125 40.2 513.9375 40.2Q511.98438 40.2 510.73438 39.10625Q509.5 38.0125 509.32812 36.2ZM521.96875 44.153126L520.71875 44.153126Q523.625 39.465626 523.625 34.778126Q523.625 32.934376 523.21875 31.1375Q522.875 29.66875 522.28125 28.325Q521.90625 27.434376 520.71875 25.3875L521.96875 25.3875Q523.8125 27.840626 524.6875 30.309376Q525.4375 32.434376 525.4375 34.7625Q525.4375 37.403126 524.4219 39.871876Q523.4219 42.325 521.96875 44.153126Z" fill-rule="nonzero"/></svg>
